<?xml version="1.0" encoding="UTF-8"?>
<svg id="Layer_2" data-name="Layer 2" xmlns="http://www.w3.org/2000/svg" viewBox="0 0 61.93 71.07">
  <defs>
    <style>
      .cls-1 {
        fill: #e11b22;
      }

      .cls-2 {
        fill: #231f20;
      }
    </style>
  </defs>
  <g id="Layer_1-2" data-name="Layer 1">
    <g>
      <path class="cls-2" d="m14.4,51.21c-1.98-.16-3.25-.99-3.88-2.29h0c-.62-1.29-.08-2.97,1.64-5.06h0c.98-1.2,2.57-2.71,4.77-4.53h0c-3.46-.03-6.54-.79-9.25-2.3h0c-2.82-1.58-4.89-3.76-6.22-6.51h0c-2.08-4.28-1.91-8.3.48-12.07h0c2.14-3.5,5.68-6.18,10.63-8.06h0c2.63-1,5.23-1.58,7.81-1.76h0c2.28-.18,4.26-.07,5.95.34h0c.55-1.58,1.38-2.96,2.46-4.12h0c1.09-1.11,2.33-1.93,3.69-2.44h0c.99-.38,2.01-.5,3.08-.35h0c1.13.12,1.93.58,2.42,1.39h0c.48.81.62,1.6.39,2.37h0c-.13.81-.67,1.39-1.59,1.75h0c-.57.21-1.16.32-1.77.31h0c-.37.02-.92,0-1.63-.03h0c-1.05-.11-1.83-.09-2.33.04h0c-.84.26-1.54.9-2.09,1.94h0c1.66.76,3.2,1.69,4.61,2.81h0c1.42,1.19,2.57,2.51,3.43,4.01h0c2.32,3.99,2.43,7.96.31,11.91h0c-1.97,3.79-5.42,6.72-10.35,8.74h0c-1.14.47-2.11.8-2.91.98h0c-1.27.38-2.62.68-4.06.91h0c-1.41.94-2.47,1.84-3.19,2.71h0c-.75.96-.98,1.72-.71,2.26h0c.33.66.83,1.17,1.49,1.48h0c.93.35,2.34.37,4.24.02h0c2.19-.45,4.5-.94,6.98-1.45h0c1.46-.38,3.69-.91,6.71-1.59h0l5.57-1.34h0c4.36-1.03,8-1.27,10.94-.75h0c3.48.6,6.05,2.29,7.71,5.1h0c2.22,3.75,1.53,7.58-2.13,11.47h0c-3.1,3.39-6.24,5.81-13.17,9.36h0c-16.22,8.29-29.47,3.49-31.09.1h0s9.85,7.26,29.51-2.49h0c4.34-2.14,7.63-4.72,10-7.49h0c2.48-2.8,3.17-5.09,2.15-6.86h0c-.94-1.65-2.56-2.7-4.82-3.17h0c-2.4-.56-5.44-.43-9.15.4h0l-11.19,2.48h0s-10,2.21-15.42,1.77ZM6.99,19.08c-.79,2.77-.41,5.71,1.16,8.83h0c1.58,3.16,3.88,5.47,6.88,6.9h0c3.46,1.68,7.04,1.78,10.71.28h0c3.51-1.43,5.66-3.83,6.44-7.19h0c.67-2.93.16-5.88-1.52-8.87h0c-1.69-3-4.01-5.12-6.97-6.4h0c-3.34-1.47-6.69-1.55-10.07-.25h0c-3.53,1.35-5.75,3.58-6.63,6.7Z"/>
      <path class="cls-1" d="m15.32,49.2c-1.97-.16-3.26-.99-3.88-2.28h0c-.63-1.29-.08-2.98,1.64-5.06h0c.98-1.2,2.57-2.71,4.77-4.53h0c-3.46-.02-6.54-.79-9.25-2.3h0c-2.82-1.58-4.89-3.77-6.23-6.51h0c-2.08-4.28-1.9-8.29.48-12.06h0c2.14-3.5,5.68-6.19,10.64-8.07h0c2.62-1,5.22-1.58,7.81-1.75h0c2.28-.19,4.26-.07,5.95.35h0c.55-1.6,1.37-2.97,2.46-4.12h0c1.1-1.12,2.33-1.93,3.7-2.45h0c.98-.38,2.01-.49,3.08-.36h0c1.13.12,1.93.59,2.41,1.39h0c.49.81.62,1.59.39,2.37h0c-.13.81-.66,1.38-1.59,1.75h0c-.55.22-1.15.31-1.77.3h0c-.37.02-.92.01-1.63-.03h0c-1.06-.1-1.83-.08-2.34.05h0c-.84.26-1.53.91-2.09,1.94h0c1.66.75,3.21,1.69,4.62,2.81h0c1.42,1.18,2.56,2.52,3.43,4.01h0c2.32,3.99,2.43,7.96.31,11.91h0c-1.97,3.8-5.42,6.72-10.35,8.74h0c-1.14.46-2.12.79-2.92.97h0c-1.27.39-2.63.68-4.06.91h0c-1.4.93-2.46,1.83-3.18,2.7h0c-.75.97-.98,1.72-.71,2.27h0c.35.67.84,1.16,1.5,1.48h0c.93.36,2.35.36,4.26.02h0c2.18-.45,4.5-.94,6.97-1.44h0c1.45-.39,3.69-.92,6.72-1.6h0l5.57-1.34h0c4.36-1.02,8-1.27,10.93-.75h0c3.48.6,6.05,2.29,7.71,5.11h0c2.23,3.76,1.54,7.58-2.13,11.47h0c-3.1,3.39-6.24,5.81-13.18,9.36h0c-16.21,8.29-29.47,3.5-31.09.1h0s9.86,7.26,29.51-2.49h0c4.33-2.15,7.62-4.72,9.99-7.49h0c2.48-2.8,3.18-5.08,2.16-6.86h0c-.96-1.66-2.57-2.71-4.82-3.17h0c-2.4-.56-5.45-.42-9.15.4h0l-11.19,2.48h0s-10,2.21-15.43,1.78ZM7.92,17.07c-.79,2.78-.42,5.72,1.16,8.84h0c1.6,3.16,3.88,5.47,6.87,6.89h0c3.46,1.68,7.03,1.77,10.71.29h0c3.51-1.43,5.66-3.84,6.45-7.2h0c.67-2.93.15-5.88-1.53-8.86h0c-1.69-3-4.01-5.12-6.97-6.41h0c-3.34-1.46-6.69-1.54-10.08-.25h0c-3.52,1.36-5.74,3.57-6.62,6.7Z"/>
    </g>
  </g>
</svg>