<svg version="1.1" id="Layer_1" xmlns="http://www.w3.org/2000/svg" x="0" y="0" viewBox="0 0 496.2 221.9" xml:space="preserve"><style>.st0{fill:#231f20}</style><path class="st0" d="M161.2 167.1H144V47.4h27.8c7.8 0 13.8.4 17.9 1.2 4.1.8 7.7 2 10.7 3.8 5 2.9 9 7.1 11.9 12.4 3 5.4 4.4 11.2 4.4 17.5 0 11.1-3.7 20-11.3 26.6-7.5 6.6-17.7 9.9-30.5 9.9h-13.7v48.3zm0-64.2h12.6c8.9 0 15.4-1.6 19.4-4.7 4-3.1 6-8.1 6-14.9 0-6.8-2-11.8-6.1-15.1s-10.3-4.9-18.7-4.9h-13.2v39.6zm70.2 64.2V47.4h16.2v119.7h-16.2zm49.4-39.1c1.4 7.5 4.8 13.7 10.2 18.3 5.4 4.7 11.9 7 19.4 7 5.3 0 10.2-1.3 14.6-3.9s7.9-6.2 10.5-11h18.3c-4.1 10-10 17.7-17.4 23-7.5 5.3-16.2 8-26.1 8-6.7 0-12.8-1.2-18.3-3.5-5.5-2.4-10.5-5.9-15-10.6-4.2-4.4-7.5-9.6-9.9-15.5s-3.6-11.9-3.6-18c0-6.3 1.1-12.3 3.2-17.8 2.2-5.5 5.4-10.6 9.6-15.1 4.5-4.9 9.5-8.7 15.2-11.2 5.6-2.5 11.8-3.7 18.5-3.7 7.9 0 15.3 1.9 22.1 5.6 6.8 3.7 12.5 8.9 16.9 15.5 2.6 4.1 4.6 8.6 5.8 13.5 1.3 4.9 1.9 10.5 1.9 16.8v2.5h-75.9v.1zm58.2-14.6c-2-7.5-5.5-13.2-10.5-17.3s-10.9-6.2-17.9-6.2c-7.1 0-13.3 2.1-18.5 6.3s-8.8 9.9-10.8 17.2H339zm83.1 53.7l-20.9-34.2-21.9 34.2h-18l30.6-46.9-27.1-43.4H383l18.8 30.9 19.3-30.9H440l-28.7 42.9 28.9 47.4h-18.1z"/><path class="st0" d="M51.2 155.5c-5.6-.4-9.2-2.8-11-6.5-1.8-3.7-.2-8.4 4.6-14.4 2.8-3.4 7.3-7.7 13.5-12.9-9.8-.1-18.6-2.2-26.3-6.5-8-4.5-13.9-10.7-17.7-18.5-5.9-12.2-5.4-23.6 1.4-34.3 6.1-9.9 16.1-17.5 30.2-22.9 7.5-2.8 14.9-4.5 22.2-5 6.5-.5 12.1-.2 16.9 1 1.6-4.5 3.9-8.4 7-11.7 3.1-3.1 6.6-5.5 10.5-6.9 2.8-1.1 5.7-1.4 8.8-1 3.2.3 5.5 1.7 6.9 3.9 1.4 2.3 1.7 4.5 1.1 6.7-.4 2.3-1.9 4-4.5 5-1.6.6-3.3.9-5 .9-1.1 0-2.6 0-4.6-.1-3-.3-5.2-.3-6.6.1-2.4.7-4.4 2.6-5.9 5.5 4.7 2.1 9.1 4.8 13.1 8 4 3.4 7.3 7.1 9.7 11.4 6.6 11.3 6.9 22.6.9 33.8-5.6 10.8-15.4 19.1-29.4 24.8-3.2 1.3-6 2.3-8.3 2.8-3.6 1.1-7.4 1.9-11.5 2.6-4 2.7-7 5.2-9 7.7-2.1 2.7-2.8 4.9-2 6.4.9 1.9 2.4 3.3 4.2 4.2 2.6 1 6.6 1 12.1.1 6.2-1.3 12.8-2.7 19.8-4.1 4.1-1.1 10.5-2.6 19.1-4.5l15.8-3.8c12.4-2.9 22.7-3.6 31.1-2.1 9.9 1.7 17.2 6.5 21.9 14.5 6.3 10.7 4.4 21.5-6.1 32.6-8.8 9.6-17.7 16.5-37.4 26.6-46.1 23.5-83.7 9.9-88.3.3 0 0 28 20.6 83.8-7.1 12.3-6.1 21.7-13.4 28.4-21.3 7-7.9 9-14.5 6.1-19.5-2.7-4.7-7.3-7.7-13.7-9-6.8-1.6-15.5-1.2-26 1.1l-31.8 7c-.2.1-28.6 6.3-44 5.1zM30.1 64.3c-2.2 7.9-1.2 16.2 3.3 25.1 4.5 9 11 15.5 19.5 19.6 9.8 4.8 20 5 30.4.8 10-4.1 16.1-10.9 18.3-20.4 1.9-8.3.5-16.7-4.3-25.2S85.9 49.7 77.5 46c-9.5-4.2-19-4.4-28.6-.7-10 3.8-16.3 10.1-18.8 19z"/><path d="M53.8 149.8c-5.6-.4-9.3-2.8-11-6.5-1.8-3.7-.2-8.5 4.6-14.4 2.8-3.4 7.3-7.7 13.5-12.9-9.8-.1-18.6-2.2-26.3-6.5-8-4.5-13.9-10.7-17.7-18.5-5.9-12.1-5.4-23.5 1.4-34.3 6.1-9.9 16.1-17.6 30.2-22.9 7.4-2.8 14.8-4.5 22.2-5 6.5-.5 12.1-.2 16.9 1 1.6-4.5 3.9-8.4 7-11.7 3.1-3.2 6.6-5.5 10.5-7 2.8-1.1 5.7-1.4 8.8-1 3.2.4 5.5 1.7 6.8 3.9 1.4 2.3 1.8 4.5 1.1 6.7-.4 2.3-1.9 3.9-4.5 5-1.6.6-3.3.9-5 .8-1.1.1-2.6 0-4.6-.1-3-.3-5.2-.2-6.7.1-2.4.7-4.3 2.6-5.9 5.5 4.7 2.1 9.1 4.8 13.1 8 4 3.4 7.3 7.2 9.7 11.4 6.6 11.3 6.9 22.6.9 33.8-5.6 10.8-15.4 19.1-29.4 24.8-3.2 1.3-6 2.2-8.3 2.8-3.6 1.1-7.5 1.9-11.5 2.6-4 2.6-7 5.2-9 7.7-2.1 2.8-2.8 4.9-2 6.5 1 1.9 2.4 3.3 4.3 4.2 2.6 1 6.7 1 12.1.1 6.2-1.3 12.8-2.7 19.8-4.1 4.1-1.1 10.5-2.6 19.1-4.5l15.8-3.8c12.4-2.9 22.7-3.6 31-2.1 9.9 1.7 17.2 6.5 21.9 14.5 6.3 10.7 4.4 21.5-6 32.6-8.8 9.6-17.7 16.5-37.4 26.6-46 23.5-83.7 9.9-88.3.3 0 0 28 20.6 83.8-7.1 12.3-6.1 21.7-13.4 28.4-21.3 7-7.9 9-14.4 6.1-19.5-2.7-4.7-7.3-7.7-13.7-9-6.8-1.6-15.5-1.2-26 1.1l-31.8 7c-.1.2-28.5 6.4-43.9 5.2zm-21-91.2c-2.2 7.9-1.2 16.2 3.3 25.1 4.5 9 11 15.5 19.5 19.6 9.8 4.8 20 5 30.4.8 10-4.1 16.1-10.9 18.3-20.4 1.9-8.3.4-16.7-4.3-25.2C95.2 50 88.6 44 80.2 40.3c-9.5-4.1-19-4.4-28.6-.7-10 3.8-16.3 10.1-18.8 19z" fill="#e01b22"/><path class="st0" d="M459.5 62.6V41.2h9.5c1.9 0 3.4.2 4.4.6 1 .4 1.8 1.1 2.4 2 .6 1 .9 2.1.9 3.2 0 1.5-.5 2.8-1.5 3.8s-2.5 1.7-4.6 2c.8.4 1.3.7 1.7 1.1.8.8 1.6 1.7 2.4 2.8l3.7 5.8h-3.5l-2.8-4.4c-.8-1.3-1.5-2.3-2-2.9-.5-.7-1-1.2-1.4-1.4-.4-.3-.9-.5-1.3-.6-.3-.1-.8-.1-1.6-.1h-3.3v9.5h-3zm2.8-11.9h6.1c1.3 0 2.3-.1 3-.4.7-.3 1.3-.7 1.7-1.3.4-.6.6-1.2.6-1.9 0-1-.4-1.8-1.1-2.5-.7-.6-1.9-1-3.5-1h-6.8v7.1z"/><path class="st0" d="M451.7 51.9c0 9.5 7.7 17.2 17.2 17.2s17.2-7.7 17.2-17.2-7.7-17.2-17.2-17.2-17.2 7.7-17.2 17.2zm1.1 0c0-8.9 7.2-16.1 16.1-16.1S485 43 485 51.9c0 8.9-7.2 16.1-16.1 16.1-8.9 0-16.1-7.2-16.1-16.1z"/></svg>