<svg width="164" height="26"  fill="none" xmlns="http://www.w3.org/2000/svg"><g clip-path="url(#clip0_381_1061)"><path d="M235.49 6.045h-15.199l-1.144 3.44h6.843v12.436h3.448V9.493h5.578l1.159-3.44h-.685v-.008zm-128.803 0h-15.2l-1.136 3.44h6.843v12.436h3.448V9.493h5.578l1.159-3.44h-.685l-.007-.008zm-19.965.113h-2.958v16.35h3.448V6.166h-.49v-.007zm194.2.03c-2.454 0-4.705 1.167-6.211 3.086-1.505-1.92-3.756-3.086-6.218-3.086-4.374 0-7.934 3.56-7.934 7.942v8.296h3.44V14.13a4.494 4.494 0 014.494-4.487 4.493 4.493 0 014.494 4.412v8.37h3.448V14.13c.068-2.582 2.04-4.487 4.479-4.487s4.487 2.018 4.487 4.487v8.296h3.448V14.13c0-4.381-3.561-7.942-7.935-7.942h.008zm-84.487 0h-2.951v1.905a4.496 4.496 0 01-4.494 4.494 4.496 4.496 0 01-4.494-4.494V6.188h-3.448v1.905c0 3.861 2.808 7.076 6.564 7.73v6.46h3.456V15.68c3.395-.934 5.857-4.028 5.857-7.588V6.188h-.49zm-70.846 0h-2.951v1.905a4.495 4.495 0 01-4.486 4.494 4.5 4.5 0 01-4.494-4.494V6.188h-3.456v1.905c0 3.861 2.808 7.068 6.572 7.73v6.46h3.448V15.68c3.403-.934 5.857-4.028 5.857-7.588V6.188h-.49zm-45.92 0H76.71v8.296c0 2.476-2.017 4.501-4.494 4.501a4.503 4.503 0 01-4.494-4.501V6.188h-3.448v8.296c0 4.381 3.56 7.934 7.942 7.934 4.381 0 7.942-3.56 7.942-7.934V6.188h-.49zM45.77 14.13v8.296h3.448V14.13a4.488 4.488 0 014.487-4.487 4.5 4.5 0 014.494 4.487v8.296h3.44V14.13c0-4.381-3.56-7.942-7.934-7.942-4.374 0-7.935 3.56-7.935 7.942zm261.176-7.807h-10.9a4.889 4.889 0 00-4.879 4.886 4.889 4.889 0 004.879 4.886h7.083c.791 0 1.438.64 1.438 1.423a1.43 1.43 0 01-1.438 1.422h-10.652l-1.084 3.275.761.173 10.975.015a4.889 4.889 0 004.886-4.878 4.895 4.895 0 00-4.886-4.886h-7.083c-.791 0-1.438-.64-1.438-1.422 0-.783.647-1.43 1.438-1.43h10.441l1.137-3.448h-.678v-.016zm-91.405 0h-10.9a4.883 4.883 0 00-4.878 4.886 4.888 4.888 0 004.878 4.886h7.084c.79 0 1.43.64 1.43 1.423 0 .782-.64 1.422-1.43 1.422h-10.668l-1.106 3.448h11.774a4.88 4.88 0 004.878-4.87c0-2.688-2.191-4.886-4.878-4.886h-7.084c-.791 0-1.438-.64-1.438-1.423s.64-1.43 1.438-1.43h10.426l1.152-3.448h-.685l.007-.008zm-38.588 0h-10.901a4.888 4.888 0 00-4.878 4.886 4.888 4.888 0 004.878 4.886h7.084c.791 0 1.43.64 1.43 1.423 0 .782-.639 1.422-1.43 1.422h-10.659l-1.13 3.448h11.789c2.695 0 4.886-2.183 4.886-4.87a4.895 4.895 0 00-4.886-4.886h-7.084c-.79 0-1.43-.64-1.43-1.423s.64-1.43 1.43-1.43h10.434l1.144-3.448h-.685l.008-.008zm78.795.083h-9.289c-4.382 0-7.942 3.553-7.942 7.927s3.56 7.942 7.942 7.942h9.763l1.152-3.455h-10.915c-1.822 0-3.38-1.13-4.073-2.763h13.31l1.144-3.448h-14.454c.693-1.64 2.258-2.77 4.073-2.77h8.822l1.152-3.44h-.685v.007zm-214.133 0h-9.29c-4.374 0-7.934 3.553-7.934 7.927s3.56 7.942 7.934 7.942h9.764l1.144-3.455H32.325c-1.822 0-3.38-1.13-4.073-2.763H41.57l1.145-3.448H28.253c.692-1.64 2.25-2.77 4.072-2.77h8.823l1.144-3.44h-.685l.008.007zm-33.658 0C3.561 6.406 0 9.967 0 14.341s3.56 7.942 7.942 7.942h5.864c4.382 0 7.942-3.561 7.942-7.942v-1.724H11.375v3.448h6.474c-.7 1.633-2.244 2.762-4.043 2.762H7.942a4.488 4.488 0 01-4.487-4.486 4.488 4.488 0 014.487-4.487h5.864a4.48 4.48 0 013.772 2.055l2.89-1.882a7.932 7.932 0 00-6.662-3.613H7.942l.015-.008z" fill="#FAFAFA"/><path d="M139.02 18.647s9.289-9.26 10.463-10.441l2.424 2.416L153.473 0l-10.629 1.566 2.424 2.424-7.159 7.166s-3.155 3.418.918 7.49h-.007z" fill="#005B97"/><path d="M147.759 9.914s-9.282 9.267-10.464 10.441a2166.64 2166.64 0 00-2.424-2.416l-1.565 10.622 10.629-1.566s-1.904-1.905-2.424-2.416l7.159-7.16s3.162-3.425-.918-7.497l.007-.008z" fill="#008ACE"/></g><defs><clipPath id="clip0_381_1061"><path fill="#fff" d="M0 0h308v28.561H0z"/></clipPath></defs></svg>
